<!DOCTYPE svg PUBLIC "-//W3C//DTD SVG 20010904//EN" "http://www.w3.org/TR/2001/REC-SVG-20010904/DTD/svg10.dtd">
<svg version="1.0" xmlns="http://www.w3.org/2000/svg" width="320px" height="237px" viewBox="0 0 3200 2370" preserveAspectRatio="xMidYMid meet">
<g id="layer101" fill="#020202" stroke="none">
 <path d="M0 1185 l0 -1185 1600 0 1600 0 0 1185 0 1185 -1600 0 -1600 0 0 -1185z"/>
 </g>
<g id="layer102" fill="#f3f3f3" stroke="none">
 <path d="M570 2274 c-30 -8 -62 -21 -70 -29 -12 -13 -12 -17 5 -30 73 -55 176 -77 239 -51 61 25 56 20 -28 -37 -124 -82 -116 -78 -144 -56 -54 42 -182 14 -261 -57 l-45 -41 38 -13 c51 -16 144 -15 186 3 19 8 50 28 67 46 50 48 51 37 1 -16 -24 -27 -59 -70 -78 -98 -43 -64 -47 -66 -97 -59 -55 8 -120 -23 -169 -79 -33 -38 -74 -107 -74 -123 0 -12 95 3 134 21 47 23 101 77 128 128 11 22 21 37 24 34 2 -2 -7 -25 -21 -50 -14 -25 -39 -82 -56 -128 -38 -104 -48 -122 -63 -116 -22 8 -90 -28 -113 -61 -48 -66 -103 -195 -89 -209 11 -11 71 22 115 62 24 22 57 67 73 100 22 44 28 52 24 29 -2 -17 -8 -67 -12 -110 -7 -84 -17 -114 -37 -114 -21 0 -64 -51 -87 -102 -25 -58 -48 -204 -33 -219 16 -16 99 83 122 147 12 31 22 81 22 117 1 53 3 46 14 -53 8 -63 14 -122 14 -132 1 -9 -14 -35 -33 -57 -43 -51 -61 -129 -52 -221 12 -129 24 -137 71 -45 27 53 30 68 30 155 l0 96 34 -104 c27 -84 32 -108 22 -121 -25 -35 -41 -82 -41 -123 0 -56 25 -159 49 -206 l19 -37 12 30 c34 89 37 179 7 260 -8 22 -18 49 -21 60 -4 11 10 -11 31 -50 21 -38 52 -89 68 -113 l28 -43 -17 -50 c-22 -59 -16 -111 18 -184 24 -53 71 -115 87 -115 14 0 10 132 -6 187 -8 27 -28 70 -45 94 -16 24 -30 48 -30 54 0 5 7 -1 16 -13 8 -12 19 -20 23 -18 4 3 18 -6 30 -20 35 -40 84 -56 150 -48 85 10 89 15 40 57 -58 50 -90 55 -204 32 -28 -6 -33 -2 -71 57 -51 77 -77 128 -67 128 5 0 15 -15 23 -32 23 -49 58 -68 145 -79 42 -6 80 -7 83 -4 11 10 -55 80 -98 102 -31 17 -60 23 -105 23 -58 0 -63 2 -75 28 -14 31 -60 144 -60 149 0 2 17 -14 38 -35 35 -36 165 -102 177 -90 8 7 -10 50 -40 98 -29 46 -106 100 -144 100 -46 1 -59 21 -76 115 -8 48 -14 111 -14 139 l2 51 7 -58 c9 -72 42 -123 118 -182 51 -40 57 -43 60 -25 5 32 -25 122 -56 168 -15 24 -50 57 -78 75 l-49 33 2 119 c1 66 6 134 11 150 8 23 9 16 5 -35 -7 -80 7 -115 79 -213 l52 -70 9 28 c23 67 -38 242 -97 280 -34 22 -39 56 -20 123 19 65 75 195 81 188 3 -2 -1 -15 -8 -27 -21 -40 -27 -86 -18 -136 11 -58 58 -183 69 -183 14 0 34 95 33 162 -1 54 -8 82 -32 134 -17 37 -31 71 -31 78 0 24 138 212 148 202 2 -3 -9 -21 -26 -40 -18 -20 -33 -51 -37 -76 -8 -46 3 -240 14 -240 7 0 55 76 65 105 4 11 12 44 16 73 8 48 6 72 -14 171 -4 18 4 32 35 61 42 38 129 94 164 106 11 3 1 -6 -22 -20 -26 -16 -49 -42 -62 -69 -20 -43 -53 -207 -41 -207 16 0 77 54 102 91 28 42 49 120 46 177 0 18 3 37 8 42 5 5 46 19 91 33 46 13 86 26 89 30 14 14 -45 7 -110 -13 -68 -21 -81 -20 -104 12 -35 48 -141 68 -232 42z m250 -78 c0 -3 -5 -8 -12 -12 -7 -4 -8 -3 -4 4 7 12 16 16 16 8z m-513 -1273 c-4 -3 -7 0 -7 7 0 7 3 10 7 7 3 -4 3 -10 0 -14z m52 -76 c0 -21 -1 -21 -9 -2 -12 28 -12 37 0 30 6 -3 10 -16 9 -28z"/>
 <path d="M2468 2278 c-21 -5 -48 -21 -60 -34 -39 -42 -50 -44 -117 -23 -64 19 -133 26 -116 11 6 -5 41 -16 79 -26 107 -25 113 -31 117 -119 4 -61 10 -82 34 -122 30 -48 100 -113 111 -103 9 9 -25 169 -44 208 -9 19 -34 46 -54 59 -21 13 -36 26 -33 29 7 8 112 -59 163 -104 l46 -41 -12 -52 c-24 -105 -9 -204 43 -283 15 -22 28 -38 30 -36 2 1 8 44 14 95 14 114 2 179 -40 224 -16 18 -28 34 -25 36 13 13 146 -174 146 -205 0 -11 -12 -43 -27 -71 -35 -68 -42 -173 -18 -257 17 -59 17 -59 31 -32 25 48 64 180 64 217 0 20 -9 54 -20 76 -11 22 -20 44 -20 50 1 19 50 -84 75 -159 34 -101 32 -118 -14 -169 -61 -67 -83 -119 -89 -214 -3 -46 -1 -83 4 -83 11 1 85 102 113 156 22 43 30 112 17 154 -6 18 -5 22 3 14 14 -13 36 -222 27 -258 -4 -16 -20 -33 -45 -45 -48 -25 -87 -71 -117 -136 -24 -55 -39 -135 -26 -135 17 0 143 122 159 154 9 17 17 53 19 79 1 27 5 52 9 55 10 10 -4 -139 -20 -218 -15 -71 -27 -85 -85 -94 -62 -10 -138 -86 -170 -170 -10 -27 -10 -28 17 -21 51 13 131 56 163 88 31 31 32 31 25 7 -4 -14 -20 -53 -36 -87 l-28 -63 -60 0 c-33 0 -72 -5 -88 -11 -30 -11 -98 -72 -115 -102 -9 -17 -5 -18 64 -11 93 9 145 34 164 81 8 19 18 33 21 29 6 -6 -62 -126 -95 -166 -18 -22 -22 -23 -59 -12 -80 24 -161 4 -211 -51 -27 -29 -25 -30 60 -42 66 -9 122 9 152 48 14 17 26 27 26 21 0 -5 -3 -14 -7 -20 -5 -5 4 4 19 21 34 38 36 25 3 -19 -13 -18 -31 -52 -40 -76 -20 -56 -30 -172 -18 -195 9 -16 12 -15 37 11 79 85 112 247 60 298 -8 9 -11 16 -5 16 6 0 11 6 11 13 0 6 14 32 31 57 16 25 43 71 60 103 16 31 31 57 33 57 2 0 -7 -26 -20 -57 -29 -70 -32 -173 -8 -253 15 -51 17 -53 30 -35 51 69 72 269 34 318 -24 31 -25 60 -4 118 9 24 25 73 35 109 18 62 18 63 11 15 -17 -121 7 -244 58 -290 27 -24 34 -5 38 105 5 115 -9 174 -50 212 -34 31 -34 29 -22 188 l8 115 7 -72 c4 -42 17 -94 32 -126 24 -53 90 -137 108 -137 14 0 10 96 -7 164 -22 88 -52 138 -96 159 -42 20 -43 25 -52 162 l-6 80 20 -39 c11 -21 31 -54 46 -73 27 -36 108 -93 131 -93 47 0 -52 210 -121 255 -13 9 -38 17 -54 17 -35 1 -39 9 -78 118 -15 41 -37 98 -50 125 -13 28 -19 41 -12 31 72 -107 136 -156 218 -164 60 -6 63 4 21 69 -62 97 -141 146 -217 134 -41 -6 -42 -5 -80 47 -21 29 -58 78 -83 108 -37 46 -39 50 -10 23 45 -42 101 -65 164 -65 54 -1 125 18 125 32 0 13 -58 59 -103 82 -56 28 -149 36 -181 14 -37 -24 -63 -20 -107 18 -22 18 -65 48 -97 65 -56 32 -54 32 18 5 67 -25 143 -11 224 42 38 26 38 26 16 41 -27 19 -116 43 -155 42 -16 -1 -47 -6 -67 -11z m429 -810 c-3 -8 -6 -5 -6 6 -1 11 2 17 5 13 3 -3 4 -12 1 -19z m-50 -620 c-3 -7 -5 -2 -5 12 0 14 2 19 5 13 2 -7 2 -19 0 -25z m-10 -35 c-4 -3 -7 0 -7 7 0 7 3 10 7 7 3 -4 3 -10 0 -14z"/>
 <path d="M972 1978 l3 -73 33 -3 c24 -2 32 1 32 12 0 9 -9 16 -20 16 -11 0 -20 7 -20 15 0 8 7 15 15 15 8 0 15 7 15 15 0 8 -7 15 -15 15 -10 0 -15 10 -15 30 0 20 -5 30 -15 30 -13 0 -15 -13 -13 -72z"/>
 <path d="M1054 2036 c-9 -23 0 -120 11 -126 6 -3 11 25 13 68 2 46 -1 72 -8 72 -6 0 -13 -6 -16 -14z"/>
 <path d="M1100 1975 c0 -43 4 -75 10 -75 6 0 10 27 10 60 0 53 2 60 20 60 11 0 20 7 20 15 0 10 -10 15 -30 15 l-30 0 0 -75z"/>
 <path d="M1170 1974 c0 -65 2 -75 17 -72 9 2 21 18 26 38 l10 35 10 -38 c6 -27 14 -37 26 -35 23 5 30 148 6 148 -11 0 -15 -11 -16 -42 l-1 -43 -10 43 c-5 23 -13 42 -18 42 -4 0 -12 -21 -18 -47 l-10 -48 -1 48 c-2 79 -21 54 -21 -29z"/>
 <path d="M1332 1978 l3 -73 33 -3 c24 -2 32 1 32 12 0 9 -9 16 -20 16 -11 0 -20 7 -20 15 0 8 7 15 15 15 8 0 15 7 15 15 0 8 -7 15 -15 15 -10 0 -15 10 -15 30 0 20 -5 30 -15 30 -13 0 -15 -13 -13 -72z"/>
 <path d="M1418 2043 c-2 -5 -3 -21 -2 -38 1 -16 2 -47 3 -68 1 -37 2 -38 34 -35 37 3 43 21 10 26 -28 4 -31 32 -3 32 11 0 20 5 20 11 0 6 -9 13 -20 16 -11 3 -20 12 -20 19 0 8 9 14 20 14 11 0 20 7 20 15 0 16 -56 22 -62 8z"/>
 <path d="M1500 2035 c-9 -11 -10 -19 -3 -26 8 -8 13 -7 17 0 10 16 26 13 26 -4 0 -8 -7 -15 -15 -15 -34 0 -43 -71 -10 -84 21 -8 45 3 45 21 0 10 -6 12 -20 8 -28 -9 -25 9 5 29 27 18 33 54 13 74 -17 17 -43 15 -58 -3z"/>
 <path d="M1600 1990 c0 -48 -3 -60 -16 -60 -9 0 -14 -6 -11 -12 2 -7 19 -13 37 -13 18 0 35 6 38 13 2 6 -3 12 -12 12 -13 0 -16 12 -16 60 0 33 -4 60 -10 60 -6 0 -10 -27 -10 -60z"/>
 <path d="M1660 1974 c0 -47 4 -73 10 -69 6 3 10 37 10 76 0 39 -4 69 -10 69 -6 0 -10 -32 -10 -76z"/>
 <path d="M1716 2038 c-13 -36 -27 -130 -21 -136 8 -9 25 19 25 43 1 43 17 47 24 6 3 -22 11 -43 16 -46 13 -8 12 6 -3 79 -12 57 -32 83 -41 54z"/>
 <path d="M1771 2035 c0 -11 6 -45 13 -75 18 -76 36 -72 54 13 15 66 10 99 -9 64 -13 -22 -28 -22 -45 1 -13 16 -13 16 -13 -3z m43 -60 c-4 -8 -8 -15 -10 -15 -2 0 -4 7 -4 15 0 8 4 15 10 15 5 0 7 -7 4 -15z"/>
 <path d="M1870 1985 c0 -36 0 -68 -1 -72 0 -4 4 -9 10 -11 7 -2 11 18 11 57 0 54 2 61 20 61 11 0 20 7 20 15 0 10 -10 15 -30 15 l-30 0 0 -65z"/>
 <path d="M1990 2038 c0 -9 19 -14 55 -15 59 -1 89 -17 81 -40 -3 -8 1 -30 9 -50 18 -42 19 -51 4 -36 -6 6 -17 9 -24 7 -12 -5 -49 33 -58 59 -2 7 -7 9 -11 5 -4 -3 -3 -16 4 -27 6 -12 12 -61 14 -110 1 -50 8 -96 13 -103 19 -22 55 -158 49 -180 -3 -12 1 -29 8 -38 7 -8 16 -27 20 -42 10 -43 -12 -34 -34 15 -23 50 -26 28 -5 -33 20 -57 18 -64 -5 -16 l-18 39 -8 -44 c-9 -50 -7 -70 8 -84 8 -7 9 -5 5 8 -8 20 8 23 16 3 3 -8 -1 -17 -9 -20 -22 -9 -17 -23 15 -36 46 -19 81 -113 79 -212 -1 -43 -4 -78 -6 -78 -1 0 -20 11 -40 25 -75 51 -189 87 -292 93 -86 4 -103 2 -186 -26 -50 -17 -131 -49 -181 -71 -101 -46 -209 -66 -273 -52 -48 11 -136 60 -212 117 -31 24 -58 44 -60 44 -2 0 6 -60 18 -132 23 -131 24 -133 61 -165 62 -53 157 -95 229 -101 77 -6 129 7 237 57 164 76 217 93 307 98 132 8 235 -25 347 -108 29 -22 55 -39 58 -39 3 0 5 46 5 103 0 56 7 152 16 212 8 61 18 129 21 151 4 34 0 50 -22 88 -24 42 -27 53 -21 104 17 146 18 196 6 315 -13 123 -8 213 16 305 6 22 6 22 -115 22 -90 0 -121 -3 -121 -12z m169 -423 c1 -23 -2 -26 -9 -15 -5 8 -9 42 -9 75 l2 60 8 -45 c4 -25 8 -58 8 -75z m-42 83 c-3 -8 -6 -5 -6 6 -1 11 2 17 5 13 3 -3 4 -12 1 -19z m60 -240 c-2 -13 -4 -5 -4 17 -1 22 1 32 4 23 2 -10 2 -28 0 -40z m-70 -65 c-4 -3 -7 0 -7 7 0 7 3 10 7 7 3 -4 3 -10 0 -14z m50 -80 c-4 -3 -10 -3 -14 0 -3 4 0 7 7 7 7 0 10 -3 7 -7z m53 -45 c-6 13 -7 22 -1 22 16 0 23 -38 11 -60 -6 -11 -15 -20 -19 -20 -10 0 -21 35 -21 65 0 18 2 18 21 -5 18 -23 19 -23 9 -2z m-403 -165 c-4 -3 -7 0 -7 7 0 7 3 10 7 7 3 -4 3 -10 0 -14z m50 0 c-4 -3 -7 0 -7 7 0 7 3 10 7 7 3 -4 3 -10 0 -14z m-58 -16 c121 8 131 1 131 -83 l0 -66 -48 7 c-26 3 -76 2 -112 -4 -35 -6 -66 -9 -68 -7 -2 2 -7 30 -12 63 -6 43 -5 61 4 68 7 6 12 16 10 23 -1 7 0 8 2 3 3 -6 41 -7 93 -4z m228 -24 c-4 -3 -7 0 -7 7 0 7 3 10 7 7 3 -4 3 -10 0 -14z m24 -27 c31 -12 70 -33 88 -45 29 -21 31 -26 31 -85 0 -34 -3 -66 -6 -69 -4 -4 -19 2 -34 13 -16 11 -57 33 -93 49 -69 31 -77 42 -77 119 0 50 9 52 91 18z m-973 -37 c84 -53 86 -56 98 -147 l7 -53 -38 16 c-31 12 -40 13 -48 3 -6 -9 -7 -8 -4 4 4 11 -7 25 -33 43 -23 16 -43 40 -49 59 -12 39 -24 126 -17 126 2 0 41 -23 84 -51z m577 8 c15 -78 8 -88 -89 -129 -55 -24 -93 -35 -99 -29 -5 5 -11 38 -13 74 -2 51 0 65 10 61 7 -3 41 9 77 25 87 40 106 40 114 -2z m-158 -4 c-4 -3 -7 0 -7 7 0 7 3 10 7 7 3 -4 3 -10 0 -14z m-350 -30 c-4 -3 -7 0 -7 7 0 7 3 10 7 7 3 -4 3 -10 0 -14z m170 -30 c-4 -3 -10 -3 -14 0 -3 4 0 7 7 7 7 0 10 -3 7 -7z m107 -76 l7 -47 -38 -17 c-50 -21 -147 -23 -167 -3 -8 8 -18 41 -21 73 l-7 57 78 1 c44 1 90 4 104 8 29 8 34 1 44 -72z m353 56 c-4 -3 -10 -3 -14 0 -3 4 0 7 7 7 7 0 10 -3 7 -7z m50 0 c-4 -3 -10 -3 -14 0 -3 4 0 7 7 7 7 0 10 -3 7 -7z m90 -10 c-4 -3 -7 0 -7 7 0 7 3 10 7 7 3 -4 3 -10 0 -14z m-430 -100 c-4 -3 -7 0 -7 7 0 7 3 10 7 7 3 -4 3 -10 0 -14z m-197 -53 c0 -5 -2 -10 -4 -10 -3 0 -8 5 -11 10 -3 6 -1 10 4 10 6 0 11 -4 11 -10z m47 3 c-4 -3 -10 -3 -14 0 -3 4 0 7 7 7 7 0 10 -3 7 -7z"/>
 <path d="M2002 1990 c0 -14 2 -19 5 -12 2 6 2 18 0 25 -3 6 -5 1 -5 -13z"/>
 <path d="M2011 1950 c0 -8 4 -22 9 -30 12 -18 12 -2 0 25 -6 13 -9 15 -9 5z"/>
 <path d="M2032 1870 c0 -14 2 -19 5 -12 2 6 2 18 0 25 -3 6 -5 1 -5 -13z"/>
 <path d="M1323 1819 c-26 -10 -57 -54 -48 -69 9 -15 31 -12 45 5 15 18 47 20 53 3 6 -18 -11 -48 -27 -48 -7 0 -25 -11 -40 -25 -52 -49 -24 -145 44 -145 17 0 38 9 50 22 24 26 25 32 4 49 -14 11 -18 11 -29 -4 -17 -23 -45 -22 -45 2 0 12 17 31 43 48 37 25 42 34 45 70 2 23 -2 51 -7 62 -14 24 -60 41 -88 30z"/>
 <path d="M2043 1790 c0 -25 2 -35 4 -22 2 12 2 32 0 45 -2 12 -4 2 -4 -23z"/>
 <path d="M960 1795 c0 -18 5 -25 20 -25 18 0 20 -8 22 -112 3 -109 4 -113 26 -116 22 -3 22 -2 22 118 0 67 -5 130 -10 141 -8 13 -21 19 -45 19 -31 0 -35 -3 -35 -25z"/>
 <path d="M1115 1800 c-16 -17 -20 -42 -23 -140 l-4 -120 26 0 26 0 0 103 c0 109 7 131 36 125 17 -3 19 -15 22 -116 2 -104 4 -112 22 -112 19 0 20 7 20 118 0 140 -9 162 -69 162 -25 0 -44 -7 -56 -20z"/>
 <path d="M1480 1709 c0 -102 -2 -111 -20 -116 -13 -3 -20 -14 -20 -29 0 -23 3 -24 65 -24 63 0 65 1 65 25 0 18 -5 25 -20 25 -19 0 -20 7 -20 115 l0 115 -25 0 -25 0 0 -111z"/>
 <path d="M1590 1680 l0 -140 25 0 25 0 0 140 0 140 -25 0 -25 0 0 -140z"/>
 <path d="M1707 1802 c-37 -41 -43 -160 -11 -223 24 -47 81 -53 113 -13 28 35 28 84 2 84 -12 0 -21 -8 -23 -21 -2 -12 -11 -27 -21 -33 -28 -17 -37 9 -35 94 3 69 5 75 25 78 17 3 24 -3 29 -22 4 -17 13 -26 25 -26 26 0 25 40 -2 74 -25 31 -77 36 -102 8z"/>
 <path d="M1860 1680 l0 -140 70 0 c68 0 70 1 70 25 0 23 -4 25 -45 25 -43 0 -45 1 -45 29 0 26 4 30 33 33 24 2 33 8 35 26 3 19 -1 22 -32 22 -34 0 -36 2 -36 35 0 35 0 35 45 35 41 0 45 2 45 25 0 24 -2 25 -70 25 l-70 0 0 -140z"/>
 <path d="M2052 1715 c0 -16 2 -22 5 -12 2 9 2 23 0 30 -3 6 -5 -1 -5 -18z"/>
 <path d="M2062 1660 c0 -14 2 -19 5 -12 2 6 2 18 0 25 -3 6 -5 1 -5 -13z"/>
 <path d="M2072 1590 c0 -19 2 -27 5 -17 2 9 2 25 0 35 -3 9 -5 1 -5 -18z"/>
 <path d="M2082 1520 c0 -14 2 -19 5 -12 2 6 2 18 0 25 -3 6 -5 1 -5 -13z"/>
 <path d="M996 1449 c-32 -37 -32 -45 -4 -52 15 -4 26 0 36 14 18 26 57 22 57 -5 0 -13 -16 -29 -45 -46 -35 -20 -47 -34 -54 -63 -8 -31 -6 -42 11 -65 28 -37 92 -43 122 -11 26 28 26 36 1 49 -17 9 -24 7 -40 -12 -18 -22 -19 -22 -37 -5 -20 21 -20 21 57 70 31 20 35 28 38 69 3 40 -1 49 -24 67 -40 31 -87 28 -118 -10z"/>
 <path d="M1217 1469 c-28 -16 -47 -71 -47 -133 0 -95 27 -136 90 -136 48 0 76 31 86 96 19 130 -48 220 -129 173z m61 -51 c17 -17 16 -139 -2 -163 -12 -16 -16 -17 -30 -6 -12 10 -16 31 -16 81 0 95 14 122 48 88z"/>
 <path d="M1415 1456 c-28 -28 -39 -78 -33 -147 8 -84 54 -122 124 -105 25 7 37 24 48 67 5 23 2 27 -19 31 -16 3 -25 1 -25 -7 0 -7 -8 -23 -18 -35 -17 -21 -19 -21 -35 -5 -21 20 -24 144 -5 163 19 19 37 14 50 -13 7 -16 19 -25 35 -25 27 0 27 1 9 45 -25 58 -88 74 -131 31z"/>
 <path d="M1590 1340 l0 -140 25 0 25 0 0 140 0 140 -25 0 -25 0 0 -140z"/>
 <path d="M1664 1465 c3 -8 20 -71 38 -140 32 -121 33 -125 60 -125 24 0 28 6 41 53 20 68 57 215 57 222 0 4 -12 5 -27 3 -20 -2 -29 -10 -33 -28 -5 -20 -13 -26 -42 -28 -32 -3 -36 -1 -41 27 -5 25 -11 31 -33 31 -19 0 -25 -4 -20 -15z m111 -132 c-9 -52 -18 -62 -26 -33 -14 50 -10 70 12 70 19 0 21 -4 14 -37z"/>
 <path d="M1880 1340 l0 -140 30 0 29 0 3 113 3 112 35 0 c31 0 35 3 35 25 0 24 -3 25 -67 28 l-68 3 0 -141z"/>
 <path d="M2090 1280 c10 -6 15 -27 16 -59 2 -75 41 -110 65 -57 9 19 7 30 -15 64 -14 23 -34 46 -45 52 -24 13 -41 13 -21 0z m51 -84 c13 -14 11 -26 -5 -26 -15 0 -26 47 -17 71 3 9 7 4 9 -11 2 -14 8 -29 13 -34z m6 17 c-4 -3 -7 0 -7 7 0 7 3 10 7 7 3 -4 3 -10 0 -14z"/>
 <path d="M1087 603 c-15 -14 -6 -23 17 -17 39 9 42 -15 5 -46 -28 -24 -32 -31 -23 -47 12 -19 74 -31 74 -14 0 6 -11 11 -25 11 -33 0 -32 11 5 38 31 24 38 50 18 70 -13 13 -60 16 -71 5z"/>
 <path d="M1194 596 c-3 -7 -4 -38 -2 -67 l3 -54 43 -3 c46 -3 59 15 15 20 -35 4 -37 30 -3 39 23 6 20 9 -12 13 -7 0 -13 10 -13 21 0 15 8 21 33 23 45 4 30 22 -19 22 -24 0 -42 -5 -45 -14z"/>
 <path d="M1310 540 c0 -56 3 -70 15 -70 12 0 15 13 15 60 l0 60 31 0 c17 0 28 4 24 10 -3 6 -24 10 -46 10 l-39 0 0 -70z"/>
 <path d="M1417 603 c-4 -3 -7 -35 -7 -70 l0 -63 45 0 c25 0 45 5 45 10 0 6 -14 10 -31 10 -23 0 -30 4 -27 17 2 9 14 20 28 24 l25 6 -25 4 c-40 6 -34 43 8 47 18 2 30 8 27 13 -7 10 -78 12 -88 2z"/>
 <path d="M1543 595 c-29 -21 -32 -84 -5 -108 20 -18 92 -23 92 -7 0 6 -13 10 -28 10 -35 0 -52 16 -52 51 0 34 23 53 55 46 16 -3 24 0 22 7 -6 18 -60 18 -84 1z"/>
 <path d="M1697 603 c-4 -3 -7 -30 -7 -60 0 -46 -3 -53 -19 -53 -11 0 -23 -4 -26 -10 -4 -6 18 -10 59 -10 37 0 66 4 66 10 0 6 -11 10 -25 10 -24 0 -25 3 -25 60 0 55 -6 70 -23 53z"/>
 <path d="M1790 541 c0 -57 3 -71 15 -71 13 0 15 12 13 67 -2 42 -8 68 -15 71 -10 3 -13 -15 -13 -67z"/>
 <path d="M1860 590 c-42 -42 -14 -120 44 -120 42 0 64 17 72 55 13 66 -69 112 -116 65z m81 -27 c19 -51 -24 -96 -59 -61 -26 26 -6 88 29 88 12 0 23 -10 30 -27z"/>
 <path d="M2006 603 c-3 -3 -6 -35 -6 -70 0 -77 14 -82 56 -20 l29 42 3 -42 c2 -24 7 -43 13 -43 12 0 12 127 -1 135 -5 3 -22 -12 -37 -34 -16 -22 -30 -40 -33 -41 -3 0 -5 16 -5 35 2 35 -6 51 -19 38z"/>
 <path d="M578 394 c6 -10 33 -41 61 -69 28 -27 51 -55 51 -63 0 -31 35 -85 70 -108 37 -25 139 -68 146 -62 7 8 -39 95 -64 121 -33 35 -93 67 -125 67 -17 0 -43 20 -87 67 -34 36 -58 58 -52 47z"/>
 <path d="M1210 367 c-20 -10 -26 -21 -28 -58 -4 -55 13 -73 65 -73 42 0 63 23 63 68 0 37 -7 49 -37 65 -27 14 -32 14 -63 -2z m70 -62 c0 -40 -31 -65 -56 -44 -20 16 -18 76 3 88 29 16 53 -5 53 -44z"/>
 <path d="M1640 367 c-75 -38 -28 -154 54 -133 37 9 33 29 -3 21 -23 -5 -32 -2 -45 17 -21 30 -20 44 4 68 14 14 28 18 45 14 14 -3 25 -2 25 4 0 5 -10 12 -22 16 -30 8 -29 8 -58 -7z"/>
 <path d="M2545 330 c-34 -34 -57 -50 -75 -50 -44 0 -116 -54 -149 -112 -44 -76 -41 -81 31 -55 78 28 148 90 148 132 0 22 13 43 52 82 29 29 50 53 47 53 -2 0 -27 -22 -54 -50z"/>
 <path d="M1340 305 l0 -65 40 0 c22 0 40 5 40 10 0 6 -11 10 -24 10 -13 0 -26 6 -29 14 -7 18 1 26 25 26 10 0 18 5 18 10 0 6 -9 10 -20 10 -15 0 -20 7 -20 25 0 16 -6 25 -15 25 -12 0 -15 -14 -15 -65z"/>
 <path d="M1440 305 l0 -65 46 0 c27 0 43 4 39 10 -3 6 -17 10 -31 10 -17 0 -24 5 -24 20 0 15 7 20 26 20 14 0 23 4 19 10 -3 6 -15 10 -26 10 -14 0 -19 7 -19 25 0 16 -6 25 -15 25 -12 0 -15 -14 -15 -65z"/>
 <path d="M1550 305 c0 -51 3 -65 15 -65 12 0 15 14 15 65 0 51 -3 65 -15 65 -12 0 -15 -14 -15 -65z"/>
 <path d="M1740 305 c0 -51 3 -65 15 -65 12 0 15 14 15 65 0 51 -3 65 -15 65 -12 0 -15 -14 -15 -65z"/>
 <path d="M1814 308 c30 -78 49 -85 75 -26 31 73 34 88 18 88 -8 0 -17 -7 -21 -15 -3 -9 -18 -15 -35 -15 -16 0 -31 6 -35 15 -3 8 -10 15 -15 15 -6 0 0 -28 13 -62z m56 8 c0 -12 -13 -36 -20 -36 -4 0 -10 9 -13 20 -4 15 0 20 14 20 10 0 19 -2 19 -4z"/>
 <path d="M1940 305 c0 -51 3 -65 15 -65 12 0 15 13 15 55 0 54 0 55 30 55 17 0 30 5 30 10 0 6 -20 10 -45 10 l-45 0 0 -65z"/>
 </g>

</svg>